# xmcd
#
# Track frame offsets: 
#        150
#        12039
#        16931
#        28609
#        32101
#
# Disc length: 565 seconds
#
# Revision: 0
# Processed by: cddbd v1.5.2PL0 Copyright (c) Steve Scherf et al.
# Submitted via: ExactAudioCopy v1.0b3
#
DISCID=2c023305
DTITLE=C-Doc featuring The Impossebulls - Make You Free bw 7am
DYEAR=2016
DGENRE=Rap
TTITLE0=Make You Free (Radio Edit)
TTITLE1=Freestyle Live I
TTITLE2=Rappers Pts 3 and 4 (Doc's Alt Mixx)
TTITLE3=Freestyle Live III
TTITLE4=7am
EXTD=
EXTT0=
EXTT1=
EXTT2=
EXTT3=
EXTT4=
PLAYORDER=
